<svg xmlns="http://www.w3.org/2000/svg" xmlns:xlink="http://www.w3.org/1999/xlink" width="436" height="213" contentStyleType="text/css" preserveAspectRatio="none" style="width:436px;height:213px;background:#fff" version="1.1" viewBox="0 0 436 213" zoomAndPan="magnify"><g><g id="cluster_Node.js"><path d="M265.358,17.2625 C268.8345,11.7473 274.2743,11.9982 277.6829,17.3396 C280.2409,11.4449 285.3525,10.8027 289.7021,15.2594 C292.7716,9.7643 296.7429,8.0609 301.411,13.5565 C305.3177,8.1223 309.3083,7.2291 313.1007,13.6691 C315.8804,6.3171 320.6586,6.5518 325.7127,11.2983 C329.6184,6.3535 334.332,6 337.3031,12.2647 C342.5652,7.4693 346.9504,8.035 350.1464,14.6004 C354.4902,9.8299 358.6126,9.3186 362.1818,15.4552 C367.277,9.1749 371.2343,11.0124 375.148,16.7319 C378.7332,12.5414 383.0483,11.4291 385.9672,17.4387 C392.9301,20.6805 394.2105,24.5999 388.6163,30.4068 C395.757,32.8769 395.7682,36.8534 391.1866,41.9368 C396.8067,43.9464 398.686,48.4093 393.4117,52.6761 C399.3767,57.5952 396.4674,63.5701 390.2044,65.4091 C395.7953,70.6918 394.2566,74.5559 388.0007,77.7175 C393.3975,83.0475 392.3474,86.9049 385.3247,89.3869 C382.0507,93.8601 377.7175,94.5479 374.8013,89.0108 C372.1332,95.0637 366.8063,96.3142 362.9445,90.1714 C359.6326,95.9892 354.0118,96.7411 350.1412,90.7786 C347.1958,96.6006 341.8656,96.4941 338.4385,91.2899 C334.6522,98.8021 329.4041,97.4329 325.0011,91.9265 C322.6535,96.4096 317.835,97.2587 314.9778,92.4779 C311.0199,99.2716 304.9835,97.0587 302.0905,91.3777 C298.2433,95.7465 294.0562,97.0034 290.7541,90.7934 C287.0601,95.6513 282.0528,96.9886 278.6831,90.4499 C275.0598,95.9657 269.2686,94.8762 266.3888,89.6026 C258.1807,86.8915 257.7929,81.6678 263.3381,75.8956 C257.7727,74.0584 257.9346,69.2768 261.9397,66.0766 C255.058,64.1214 254.1818,58.2707 259.9998,54.235 C253.7403,49.5766 255.7149,42.9772 262.4182,40.6218 C257.3414,36.7567 258.3131,32.7235 263.9109,30.4203 C259.1323,25.2457 258.498,21.1572 265.358,17.2625" style="stroke:#181818;stroke-width:1;fill:none"/><text x="295.5" y="34.638" fill="#000" font-family="sans-serif" font-size="14" font-weight="bold" lengthAdjust="spacing" textLength="59">Node.js</text></g><g id="cluster_Using in modern projects"><path d="M8.5,8.643 L208.5,8.643 A3.75,3.75 0 0 1 211,11.143 L218,30.9399 L218.5,30.9399 A2.5,2.5 0 0 1 221,33.4399 L221,204.143 A2.5,2.5 0 0 1 218.5,206.643 L8.5,206.643 A2.5,2.5 0 0 1 6,204.143 L6,11.143 A2.5,2.5 0 0 1 8.5,8.643" style="stroke:#000;stroke-width:1.5;fill:none"/><line style="stroke:#000;stroke-width:1.5;fill:none" x1="6" x2="218" y1="30.94" y2="30.94"/><text x="10" y="23.638" fill="#000" font-family="sans-serif" font-size="14" font-weight="bold" lengthAdjust="spacing" textLength="199">Using in modern projects</text></g><g id="cluster_Work in progress"><path d="M247.5,119.643 L385.5,119.643 A3.75,3.75 0 0 1 388,122.143 L395,141.9399 L426.5,141.9399 A2.5,2.5 0 0 1 429,144.4399 L429,204.143 A2.5,2.5 0 0 1 426.5,206.643 L247.5,206.643 A2.5,2.5 0 0 1 245,204.143 L245,122.143 A2.5,2.5 0 0 1 247.5,119.643" style="stroke:#000;stroke-width:1.5;fill:none"/><line style="stroke:#000;stroke-width:1.5;fill:none" x1="245" x2="395" y1="141.94" y2="141.94"/><text x="249" y="134.638" fill="#000" font-family="sans-serif" font-size="14" font-weight="bold" lengthAdjust="spacing" textLength="137">Work in progress</text></g><g id="elem_eslint-config"><a href="https://github.com/Byndyusoft/eslint-config" target="_blank" title="https://github.com/Byndyusoft/eslint-config" xlink:actuate="onRequest" xlink:href="https://github.com/Byndyusoft/eslint-config" xlink:show="new" xlink:title="https://github.com/Byndyusoft/eslint-config" xlink:type="simple"><rect width="104" height="36.297" x="273" y="43.643" fill="#FEEEB7" rx="2.5" ry="2.5" style="stroke:#181818;stroke-width:.5"/><text x="283" y="66.638" fill="#000" font-family="sans-serif" font-size="14" lengthAdjust="spacing" textLength="84">eslint-config</text></a></g><g id="elem_cra-template"><a href="https://github.com/Byndyusoft/cra-template" target="_blank" title="https://github.com/Byndyusoft/cra-template" xlink:actuate="onRequest" xlink:href="https://github.com/Byndyusoft/cra-template" xlink:show="new" xlink:title="https://github.com/Byndyusoft/cra-template" xlink:type="simple"><rect width="107" height="36.297" x="94.5" y="154.643" fill="#C0E1FB" rx="2.5" ry="2.5" style="stroke:#181818;stroke-width:.5"/><text x="104.5" y="177.638" fill="#000" font-family="sans-serif" font-size="14" lengthAdjust="spacing" textLength="87">cra-template</text></a></g><g id="elem_stylelint-config"><a href="https://github.com/Byndyusoft/stylelint-config" target="_blank" title="https://github.com/Byndyusoft/stylelint-config" xlink:actuate="onRequest" xlink:href="https://github.com/Byndyusoft/stylelint-config" xlink:show="new" xlink:title="https://github.com/Byndyusoft/stylelint-config" xlink:type="simple"><rect width="119" height="36.297" x="85.5" y="43.643" fill="#FEEEB7" rx="2.5" ry="2.5" style="stroke:#181818;stroke-width:.5"/><text x="95.5" y="66.638" fill="#000" font-family="sans-serif" font-size="14" lengthAdjust="spacing" textLength="99">stylelint-config</text></a></g><g id="elem_ui-testing-template"><a href="https://github.com/Byndyusoft/ui-testing-template" target="_blank" title="https://github.com/Byndyusoft/ui-testing-template" xlink:actuate="onRequest" xlink:href="https://github.com/Byndyusoft/ui-testing-template" xlink:show="new" xlink:title="https://github.com/Byndyusoft/ui-testing-template" xlink:type="simple"><rect width="151" height="36.297" x="261.5" y="154.643" fill="#C0E1FB" rx="2.5" ry="2.5" style="stroke:#181818;stroke-width:.5"/><text x="271.5" y="177.638" fill="#000" font-family="sans-serif" font-size="14" lengthAdjust="spacing" textLength="131">ui-testing-template</text></a></g><g id="link_eslint-config_cra-template"><path id="eslint-config-backto-cra-template" fill="none" d="M292.43,82.543 C277.9,91.433 260.59,102.053 245,111.643 C221.56,126.073 194.98,142.523 175.58,154.543" style="stroke:#181818;stroke-width:1;stroke-dasharray:7,7"/><polygon fill="#181818" points="296.84 79.843 287.072 81.106 292.569 82.443 291.232 87.939 296.84 79.843" style="stroke:#181818;stroke-width:1"/></g><g id="link_stylelint-config_cra-template"><path id="stylelint-config-backto-cra-template" fill="none" d="M145.61,84.683 C146.17,105.243 147.01,135.503 147.52,154.373" style="stroke:#181818;stroke-width:1;stroke-dasharray:7,7"/><polygon fill="#181818" points="145.47 79.673 141.729 88.784 145.613 84.671 149.725 88.555 145.47 79.673" style="stroke:#181818;stroke-width:1"/></g><g id="link_eslint-config_ui-testing-template"><path id="eslint-config-backto-ui-testing-template" fill="none" d="M327.43,84.683 C329.69,105.243 333.02,135.503 335.1,154.373" style="stroke:#181818;stroke-width:1;stroke-dasharray:7,7"/><polygon fill="#181818" points="326.88 79.673 323.881 89.054 327.423 84.643 331.833 88.186 326.88 79.673" style="stroke:#181818;stroke-width:1"/></g></g></svg>