<svg xmlns="http://www.w3.org/2000/svg" xmlns:xlink="http://www.w3.org/1999/xlink" width="1307" height="691" contentStyleType="text/css" preserveAspectRatio="none" style="width:1307px;height:691px;background:#fff" version="1.1" viewBox="0 0 1307 691" zoomAndPan="magnify"><g><g id="cluster_Using in modern projects"><path d="M8.5,6 L208.5,6 A3.75,3.75 0 0 1 211,8.5 L218,28.2969 L989.5,28.2969 A2.5,2.5 0 0 1 992,30.7969 L992,681.5 A2.5,2.5 0 0 1 989.5,684 L8.5,684 A2.5,2.5 0 0 1 6,681.5 L6,8.5 A2.5,2.5 0 0 1 8.5,6" style="stroke:#000;stroke-width:1.5;fill:none"/><line style="stroke:#000;stroke-width:1.5;fill:none" x1="6" x2="218" y1="28.297" y2="28.297"/><text x="10" y="20.995" fill="#000" font-family="sans-serif" font-size="14" font-weight="bold" lengthAdjust="spacing" textLength="199">Using in modern projects</text></g><g id="cluster_Work in progress"><path d="M1018.5,6 L1156.5,6 A3.75,3.75 0 0 1 1159,8.5 L1166,28.2969 L1297.5,28.2969 A2.5,2.5 0 0 1 1300,30.7969 L1300,90.5 A2.5,2.5 0 0 1 1297.5,93 L1018.5,93 A2.5,2.5 0 0 1 1016,90.5 L1016,8.5 A2.5,2.5 0 0 1 1018.5,6" style="stroke:#000;stroke-width:1.5;fill:none"/><line style="stroke:#000;stroke-width:1.5;fill:none" x1="1016" x2="1166" y1="28.297" y2="28.297"/><text x="1020" y="20.995" fill="#000" font-family="sans-serif" font-size="14" font-weight="bold" lengthAdjust="spacing" textLength="137">Work in progress</text></g><g id="cluster_Using in legacy projects"><path d="M1018.5,117 L1208.5,117 A3.75,3.75 0 0 1 1211,119.5 L1218,139.2969 L1288.5,139.2969 A2.5,2.5 0 0 1 1291,141.7969 L1291,201.5 A2.5,2.5 0 0 1 1288.5,204 L1018.5,204 A2.5,2.5 0 0 1 1016,201.5 L1016,119.5 A2.5,2.5 0 0 1 1018.5,117" style="stroke:#000;stroke-width:1.5;fill:none"/><line style="stroke:#000;stroke-width:1.5;fill:none" x1="1016" x2="1218" y1="139.297" y2="139.297"/><text x="1020" y="131.995" fill="#000" font-family="sans-serif" font-size="14" font-weight="bold" lengthAdjust="spacing" textLength="189">Using in legacy projects</text></g><g id="elem_nest-template"><a href="https://github.com/Byndyusoft/nest-template" target="_blank" title="https://github.com/Byndyusoft/nest-template" xlink:actuate="onRequest" xlink:href="https://github.com/Byndyusoft/nest-template" xlink:show="new" xlink:title="https://github.com/Byndyusoft/nest-template" xlink:type="simple"><rect width="117" height="36.297" x="634.5" y="632" fill="#C0E1FB" rx="2.5" ry="2.5" style="stroke:#181818;stroke-width:.5"/><text x="644.5" y="654.995" fill="#000" font-family="sans-serif" font-size="14" lengthAdjust="spacing" textLength="97">nest-template</text></a></g><g id="elem_node-base-template"><a href="https://github.com/Byndyusoft/node-base-template" target="_blank" title="https://github.com/Byndyusoft/node-base-template" xlink:actuate="onRequest" xlink:href="https://github.com/Byndyusoft/node-base-template" xlink:show="new" xlink:title="https://github.com/Byndyusoft/node-base-template" xlink:type="simple"><rect width="161" height="36.297" x="522.5" y="152" fill="#C0E1FB" rx="2.5" ry="2.5" style="stroke:#181818;stroke-width:.5"/><text x="532.5" y="174.995" fill="#000" font-family="sans-serif" font-size="14" lengthAdjust="spacing" textLength="141">node-base-template</text></a></g><g id="elem_node-typescript-template"><a href="https://github.com/Byndyusoft/node-typescript-template" target="_blank" title="https://github.com/Byndyusoft/node-typescript-template" xlink:actuate="onRequest" xlink:href="https://github.com/Byndyusoft/node-typescript-template" xlink:show="new" xlink:title="https://github.com/Byndyusoft/node-typescript-template" xlink:type="simple"><rect width="195" height="36.297" x="371.5" y="344" fill="#C0E1FB" rx="2.5" ry="2.5" style="stroke:#181818;stroke-width:.5"/><text x="381.5" y="366.995" fill="#000" font-family="sans-serif" font-size="14" lengthAdjust="spacing" textLength="175">node-typescript-template</text></a></g><g id="elem_class-validator-extended"><a href="https://github.com/Byndyusoft/class-validator-extended" target="_blank" title="https://github.com/Byndyusoft/class-validator-extended" xlink:actuate="onRequest" xlink:href="https://github.com/Byndyusoft/class-validator-extended" xlink:show="new" xlink:title="https://github.com/Byndyusoft/class-validator-extended" xlink:type="simple"><rect width="188" height="36.297" x="59" y="536" fill="#FEEEB7" rx="2.5" ry="2.5" style="stroke:#181818;stroke-width:.5"/><text x="69" y="558.995" fill="#000" font-family="sans-serif" font-size="14" lengthAdjust="spacing" textLength="168">class-validator-extended</text></a></g><g id="elem_eslint-config"><a href="https://github.com/Byndyusoft/eslint-config" target="_blank" title="https://github.com/Byndyusoft/eslint-config" xlink:actuate="onRequest" xlink:href="https://github.com/Byndyusoft/eslint-config" xlink:show="new" xlink:title="https://github.com/Byndyusoft/eslint-config" xlink:type="simple"><rect width="104" height="36.297" x="741" y="41" fill="#FEEEB7" rx="2.5" ry="2.5" style="stroke:#181818;stroke-width:.5"/><text x="751" y="63.995" fill="#000" font-family="sans-serif" font-size="14" lengthAdjust="spacing" textLength="84">eslint-config</text></a></g><g id="elem_nest-dynamic-module"><a href="https://github.com/Byndyusoft/nest-dynamic-module" target="_blank" title="https://github.com/Byndyusoft/nest-dynamic-module" xlink:actuate="onRequest" xlink:href="https://github.com/Byndyusoft/nest-dynamic-module" xlink:show="new" xlink:title="https://github.com/Byndyusoft/nest-dynamic-module" xlink:type="simple"><rect width="170" height="36.297" x="166" y="440" fill="#FEEEB7" rx="2.5" ry="2.5" style="stroke:#181818;stroke-width:.5"/><text x="176" y="462.995" fill="#000" font-family="sans-serif" font-size="14" lengthAdjust="spacing" textLength="150">nest-dynamic-module</text></a></g><g id="elem_nest-http-client"><a href="https://github.com/Byndyusoft/nest-http-client" target="_blank" title="https://github.com/Byndyusoft/nest-http-client" xlink:actuate="onRequest" xlink:href="https://github.com/Byndyusoft/nest-http-client" xlink:show="new" xlink:title="https://github.com/Byndyusoft/nest-http-client" xlink:type="simple"><rect width="126" height="36.297" x="531" y="536" fill="#FEEEB7" rx="2.5" ry="2.5" style="stroke:#181818;stroke-width:.5"/><text x="541" y="558.995" fill="#000" font-family="sans-serif" font-size="14" lengthAdjust="spacing" textLength="106">nest-http-client</text></a></g><g id="elem_nest-kafka"><a href="https://github.com/Byndyusoft/nest-kafka" target="_blank" title="https://github.com/Byndyusoft/nest-kafka" xlink:actuate="onRequest" xlink:href="https://github.com/Byndyusoft/nest-kafka" xlink:show="new" xlink:title="https://github.com/Byndyusoft/nest-kafka" xlink:type="simple"><rect width="92" height="36.297" x="172" y="632" fill="#FEEEB7" rx="2.5" ry="2.5" style="stroke:#181818;stroke-width:.5"/><text x="182" y="654.995" fill="#000" font-family="sans-serif" font-size="14" lengthAdjust="spacing" textLength="72">nest-kafka</text></a></g><g id="elem_nest-opentracing"><a href="https://github.com/Byndyusoft/nest-opentracing" target="_blank" title="https://github.com/Byndyusoft/nest-opentracing" xlink:actuate="onRequest" xlink:href="https://github.com/Byndyusoft/nest-opentracing" xlink:show="new" xlink:title="https://github.com/Byndyusoft/nest-opentracing" xlink:type="simple"><rect width="139" height="36.297" x="319.5" y="536" fill="#FEEEB7" rx="2.5" ry="2.5" style="stroke:#181818;stroke-width:.5"/><text x="329.5" y="558.995" fill="#000" font-family="sans-serif" font-size="14" lengthAdjust="spacing" textLength="119">nest-opentracing</text></a></g><g id="elem_nest-swagger"><a href="https://github.com/Byndyusoft/nest-swagger" target="_blank" title="https://github.com/Byndyusoft/nest-swagger" xlink:actuate="onRequest" xlink:href="https://github.com/Byndyusoft/nest-swagger" xlink:show="new" xlink:title="https://github.com/Byndyusoft/nest-swagger" xlink:type="simple"><rect width="115" height="36.297" x="749.5" y="344" fill="#FEEEB7" rx="2.5" ry="2.5" style="stroke:#181818;stroke-width:.5"/><text x="759.5" y="366.995" fill="#000" font-family="sans-serif" font-size="14" lengthAdjust="spacing" textLength="95">nest-swagger</text></a></g><g id="elem_node-casc"><a href="https://github.com/Byndyusoft/node-casc" target="_blank" title="https://github.com/Byndyusoft/node-casc" xlink:actuate="onRequest" xlink:href="https://github.com/Byndyusoft/node-casc" xlink:show="new" xlink:title="https://github.com/Byndyusoft/node-casc" xlink:type="simple"><rect width="93" height="36.297" x="442.5" y="41" fill="#FEEEB7" rx="2.5" ry="2.5" style="stroke:#181818;stroke-width:.5"/><text x="452.5" y="63.995" fill="#000" font-family="sans-serif" font-size="14" lengthAdjust="spacing" textLength="73">node-casc</text></a></g><g id="elem_node-dto-factory"><a href="https://github.com/Byndyusoft/node-dto-factory" target="_blank" title="https://github.com/Byndyusoft/node-dto-factory" xlink:actuate="onRequest" xlink:href="https://github.com/Byndyusoft/node-dto-factory" xlink:show="new" xlink:title="https://github.com/Byndyusoft/node-dto-factory" xlink:type="simple"><rect width="135" height="36.297" x="766.5" y="536" fill="#FEEEB7" rx="2.5" ry="2.5" style="stroke:#181818;stroke-width:.5"/><text x="776.5" y="558.995" fill="#000" font-family="sans-serif" font-size="14" lengthAdjust="spacing" textLength="115">node-dto-factory</text></a></g><g id="elem_node-pino-logger-factory"><a href="https://github.com/Byndyusoft/node-pino-logger-factory" target="_blank" title="https://github.com/Byndyusoft/node-pino-logger-factory" xlink:actuate="onRequest" xlink:href="https://github.com/Byndyusoft/node-pino-logger-factory" xlink:show="new" xlink:title="https://github.com/Byndyusoft/node-pino-logger-factory" xlink:type="simple"><rect width="191" height="36.297" x="747.5" y="440" fill="#FEEEB7" rx="2.5" ry="2.5" style="stroke:#181818;stroke-width:.5"/><text x="757.5" y="462.995" fill="#000" font-family="sans-serif" font-size="14" lengthAdjust="spacing" textLength="171">node-pino-logger-factory</text></a></g><g id="elem_node-sonar-coverage-reporter"><a href="https://github.com/Byndyusoft/node-sonar-coverage-reporter" target="_blank" title="https://github.com/Byndyusoft/node-sonar-coverage-reporter" xlink:actuate="onRequest" xlink:href="https://github.com/Byndyusoft/node-sonar-coverage-reporter" xlink:show="new" xlink:title="https://github.com/Byndyusoft/node-sonar-coverage-reporter" xlink:type="simple"><rect width="230" height="36.297" x="408" y="440" fill="#FEEEB7" rx="2.5" ry="2.5" style="stroke:#181818;stroke-width:.5"/><text x="418" y="462.995" fill="#000" font-family="sans-serif" font-size="14" lengthAdjust="spacing" textLength="210">node-sonar-coverage-reporter</text></a></g><g id="elem_tsconfig"><a href="https://github.com/Byndyusoft/tsconfig" target="_blank" title="https://github.com/Byndyusoft/tsconfig" xlink:actuate="onRequest" xlink:href="https://github.com/Byndyusoft/tsconfig" xlink:show="new" xlink:title="https://github.com/Byndyusoft/tsconfig" xlink:type="simple"><rect width="75" height="36.297" x="394.5" y="248" fill="#FEEEB7" rx="2.5" ry="2.5" style="stroke:#181818;stroke-width:.5"/><text x="404.5" y="270.995" fill="#000" font-family="sans-serif" font-size="14" lengthAdjust="spacing" textLength="55">tsconfig</text></a></g><g id="elem_node-renovate-config"><a href="https://github.com/Byndyusoft/node-renovate-config" target="_blank" title="https://github.com/Byndyusoft/node-renovate-config" xlink:actuate="onRequest" xlink:href="https://github.com/Byndyusoft/node-renovate-config" xlink:show="new" xlink:title="https://github.com/Byndyusoft/node-renovate-config" xlink:type="simple"><rect width="169" height="36.297" x="578.5" y="248" fill="#D3F3BE" rx="2.5" ry="2.5" style="stroke:#181818;stroke-width:.5"/><text x="588.5" y="270.995" fill="#000" font-family="sans-serif" font-size="14" lengthAdjust="spacing" textLength="149">node-renovate-config</text></a></g><g id="elem_node-reusable-workflows"><a href="https://github.com/Byndyusoft/node-reusable-workflows" target="_blank" title="https://github.com/Byndyusoft/node-reusable-workflows" xlink:actuate="onRequest" xlink:href="https://github.com/Byndyusoft/node-reusable-workflows" xlink:show="new" xlink:title="https://github.com/Byndyusoft/node-reusable-workflows" xlink:type="simple"><rect width="194" height="36.297" x="782" y="248" fill="#D3F3BE" rx="2.5" ry="2.5" style="stroke:#181818;stroke-width:.5"/><text x="792" y="270.995" fill="#000" font-family="sans-serif" font-size="14" lengthAdjust="spacing" textLength="174">node-reusable-workflows</text></a></g><g id="elem_nodejs-integration-tests-template"><a href="https://github.com/Byndyusoft/nodejs-integration-tests-template" target="_blank" title="https://github.com/Byndyusoft/nodejs-integration-tests-template" xlink:actuate="onRequest" xlink:href="https://github.com/Byndyusoft/nodejs-integration-tests-template" xlink:show="new" xlink:title="https://github.com/Byndyusoft/nodejs-integration-tests-template" xlink:type="simple"><rect width="252" height="36.297" x="1032" y="41" fill="#C0E1FB" rx="2.5" ry="2.5" style="stroke:#181818;stroke-width:.5"/><text x="1042" y="63.995" fill="#000" font-family="sans-serif" font-size="14" lengthAdjust="spacing" textLength="232">nodejs-integration-tests-template</text></a></g><g id="elem_grpc-timeouts"><a href="https://github.com/Byndyusoft/grpc-timeouts" target="_blank" title="https://github.com/Byndyusoft/grpc-timeouts" xlink:actuate="onRequest" xlink:href="https://github.com/Byndyusoft/grpc-timeouts" xlink:show="new" xlink:title="https://github.com/Byndyusoft/grpc-timeouts" xlink:type="simple"><rect width="117" height="36.297" x="1157.5" y="152" fill="#FEEEB7" rx="2.5" ry="2.5" style="stroke:#181818;stroke-width:.5"/><text x="1167.5" y="174.995" fill="#000" font-family="sans-serif" font-size="14" lengthAdjust="spacing" textLength="97">grpc-timeouts</text></a></g><g id="elem_grpc-tools"><a href="https://github.com/Byndyusoft/grpc-tools" target="_blank" title="https://github.com/Byndyusoft/grpc-tools" xlink:actuate="onRequest" xlink:href="https://github.com/Byndyusoft/grpc-tools" xlink:show="new" xlink:title="https://github.com/Byndyusoft/grpc-tools" xlink:type="simple"><rect width="90" height="36.297" x="1032" y="152" fill="#FEEEB7" rx="2.5" ry="2.5" style="stroke:#181818;stroke-width:.5"/><text x="1042" y="174.995" fill="#000" font-family="sans-serif" font-size="14" lengthAdjust="spacing" textLength="70">grpc-tools</text></a></g><g id="link_node-typescript-template_nest-template"><path id="node-typescript-template-backto-nest-template" fill="none" d="M568.22,386.67 C599.65,398.32 632.34,415.35 656,440 C671.72,456.38 686.85,513.67 691,536 C697.23,569.57 695.92,609.71 694.43,631.98" style="stroke:#181818;stroke-width:1"/><polygon fill="none" points="565.57 393.16 548.89 380.09 570.08 379.91 565.57 393.16" style="stroke:#181818;stroke-width:1"/></g><g id="link_class-validator-extended_nest-template"><path id="class-validator-extended-backto-nest-template" fill="none" d="M252.01,572.23 C363.89,591.71 542.34,622.77 634.17,638.76" style="stroke:#181818;stroke-width:1;stroke-dasharray:7,7"/><polygon fill="#181818" points="247.06 571.37 255.242 576.853 251.986 572.227 256.612 568.971 247.06 571.37" style="stroke:#181818;stroke-width:1"/></g><g id="link_nest-dynamic-module_nest-template"><path id="nest-dynamic-module-backto-nest-template" fill="none" d="M331.03,477.38 C375.73,489.81 431.27,508.94 476,536 C495.91,548.04 494.57,559.21 514,572 C553.56,598.05 603.38,618.63 640.41,631.94" style="stroke:#181818;stroke-width:1;stroke-dasharray:7,7"/><polygon fill="#181818" points="326.19 476.05 333.806 482.294 331.011 477.376 335.929 474.581 326.19 476.05" style="stroke:#181818;stroke-width:1"/></g><g id="link_nest-http-client_nest-template"><path id="nest-http-client-backto-nest-template" fill="none" d="M616.06,575.94 C633.79,592.78 658.39,616.14 674.96,631.87" style="stroke:#181818;stroke-width:1;stroke-dasharray:7,7"/><polygon fill="#181818" points="612.16 572.24 615.936 581.336 615.787 575.682 621.442 575.533 612.16 572.24" style="stroke:#181818;stroke-width:1"/></g><g id="link_nest-opentracing_nest-template"><path id="nest-opentracing-backto-nest-template" fill="none" d="M448.95,573.54 C503.87,590.52 584.49,615.45 637.84,631.95" style="stroke:#181818;stroke-width:1;stroke-dasharray:7,7"/><polygon fill="#181818" points="444.05 572.02 451.454 578.515 448.824 573.506 453.832 570.876 444.05 572.02" style="stroke:#181818;stroke-width:1"/></g><g id="link_nest-swagger_nest-template"><path id="nest-swagger-backto-nest-template" fill="none" d="M869.75,378.61 C901.48,390.02 937.17,409.07 956,440 C976.13,473.06 949.1,552.82 931,572 C884.28,621.51 805.55,639.26 751.52,645.58" style="stroke:#181818;stroke-width:1;stroke-dasharray:7,7"/><polygon fill="#181818" points="864.69 376.84 871.872 383.579 869.412 378.485 874.505 376.024 864.69 376.84" style="stroke:#181818;stroke-width:1"/></g><g id="link_node-dto-factory_nest-template"><path id="node-dto-factory-backto-nest-template" fill="none" d="M804.18,574.88 C778.87,591.75 742.92,615.72 718.82,631.79" style="stroke:#181818;stroke-width:1;stroke-dasharray:7,7"/><polygon fill="#181818" points="808.47 572.02 798.767 573.707 804.316 574.803 803.22 580.353 808.47 572.02" style="stroke:#181818;stroke-width:1"/></g><g id="link_node-pino-logger-factory_nest-template"><path id="node-pino-logger-factory-backto-nest-template" fill="none" d="M873.13,479.31 C903.18,502.12 941.82,540.12 919,572 C881.18,624.84 804.95,641.84 751.52,647.08" style="stroke:#181818;stroke-width:1;stroke-dasharray:7,7"/><polygon fill="#181818" points="868.77 476.06 873.604 484.641 872.782 479.044 878.379 478.222 868.77 476.06" style="stroke:#181818;stroke-width:1"/></g><g id="link_node-sonar-coverage-reporter_nest-template"><path id="node-sonar-coverage-reporter-backto-nest-template" fill="none" d="M591.3,477.93 C621.52,489.77 654.74,508.2 675,536 C695.83,564.57 696.4,608.04 694.81,631.88" style="stroke:#181818;stroke-width:1;stroke-dasharray:7,7"/><polygon fill="#181818" points="586.48 476.09 593.458 483.04 591.15 477.875 596.315 475.567 586.48 476.09" style="stroke:#181818;stroke-width:1"/></g><g id="link_eslint-config_node-base-template"><path id="eslint-config-backto-node-base-template" fill="none" d="M758.6,79.74 C722.67,100.35 666.9,132.34 632.79,151.91" style="stroke:#181818;stroke-width:1;stroke-dasharray:7,7"/><polygon fill="#181818" points="763.31 77.03 753.514 78.053 758.977 79.525 757.506 84.987 763.31 77.03" style="stroke:#181818;stroke-width:1"/></g><g id="link_node-base-template_node-typescript-template"><path id="node-base-template-backto-node-typescript-template" fill="none" d="M571.65,202.94 C559.25,216.33 545.3,232.39 534,248 C510.78,280.09 488.93,321.11 477.43,343.86" style="stroke:#181818;stroke-width:1"/><polygon fill="none" points="566.86 197.82 585.72 188.15 577.01 207.47 566.86 197.82" style="stroke:#181818;stroke-width:1"/></g><g id="link_tsconfig_node-typescript-template"><path id="tsconfig-backto-node-typescript-template" fill="none" d="M440.75,289.23 C447.33,305.95 456.22,328.53 462.26,343.87" style="stroke:#181818;stroke-width:1;stroke-dasharray:7,7"/><polygon fill="#181818" points="438.79 284.24 438.356 294.079 440.617 288.894 445.803 291.156 438.79 284.24" style="stroke:#181818;stroke-width:1"/></g><g id="link_node-typescript-template_class-validator-extended"><path id="node-typescript-template-backto-class-validator-extended" fill="none" d="M351.49,375.94 C270.62,387.56 173.38,407.81 148,440 C126.24,467.6 137.35,511.85 146.01,535.97" style="stroke:#181818;stroke-width:1"/><polygon fill="none" points="350.61 369 371.37 373.21 352.51 382.87 350.61 369" style="stroke:#181818;stroke-width:1"/></g><g id="link_node-typescript-template_nest-dynamic-module"><path id="node-typescript-template-backto-nest-dynamic-module" fill="none" d="M411.01,388.01 C372.95,404.41 324.19,425.44 290.55,439.95" style="stroke:#181818;stroke-width:1"/><polygon fill="none" points="408.38 381.51 429.52 380.02 413.93 394.37 408.38 381.51" style="stroke:#181818;stroke-width:1"/></g><g id="link_node-typescript-template_nest-http-client"><path id="node-typescript-template-backto-nest-http-client" fill="none" d="M426.67,392.25 C399.01,415.06 371.36,447.55 391,476 C407.49,499.89 477.6,522.9 530.85,537.45" style="stroke:#181818;stroke-width:1"/><polygon fill="none" points="422.47 386.65 442.6 380.04 430.99 397.76 422.47 386.65" style="stroke:#181818;stroke-width:1"/></g><g id="link_nest-dynamic-module_nest-http-client"><path id="nest-dynamic-module-backto-nest-http-client" fill="none" d="M318.27,477.44 C380.24,494.42 471.45,519.42 531.77,535.95" style="stroke:#181818;stroke-width:1;stroke-dasharray:7,7"/><polygon fill="#181818" points="313.11 476.02 320.722 482.27 317.93 477.35 322.85 474.558 313.11 476.02" style="stroke:#181818;stroke-width:1"/></g><g id="link_node-typescript-template_nest-kafka"><path id="node-typescript-template-backto-nest-kafka" fill="none" d="M351.18,367.46 C241.05,379.12 86.89,417.03 41,536 C35.24,550.93 32.23,558.62 41,572 C69.75,615.86 129.5,634.87 171.6,643.02" style="stroke:#181818;stroke-width:1"/><polygon fill="none" points="350.62 360.48 371.19 365.58 351.94 374.42 350.62 360.48" style="stroke:#181818;stroke-width:1"/></g><g id="link_class-validator-extended_nest-kafka"><path id="class-validator-extended-backto-nest-kafka" fill="none" d="M167.78,576.37 C179.39,593.17 195.37,616.27 206.15,631.87" style="stroke:#181818;stroke-width:1;stroke-dasharray:7,7"/><polygon fill="#181818" points="164.92 572.24 166.745 581.918 167.762 576.354 173.327 577.37 164.92 572.24" style="stroke:#181818;stroke-width:1"/></g><g id="link_nest-dynamic-module_nest-kafka"><path id="nest-dynamic-module-backto-nest-kafka" fill="none" d="M258.81,481.15 C265.78,504.22 273.65,541.22 265,572 C258.64,594.62 243.6,617.16 232.23,631.96" style="stroke:#181818;stroke-width:1;stroke-dasharray:7,7"/><polygon fill="#181818" points="257.25 476.16 256.125 485.944 258.745 480.931 263.759 483.552 257.25 476.16" style="stroke:#181818;stroke-width:1"/></g><g id="link_nest-opentracing_nest-kafka"><path id="nest-opentracing-backto-nest-kafka" fill="none" d="M353.58,574.47 C322.75,591.42 278.49,615.75 249.02,631.95" style="stroke:#181818;stroke-width:1;stroke-dasharray:7,7"/><polygon fill="#181818" points="358.03 572.02 348.216 572.845 353.647 574.426 352.066 579.858 358.03 572.02" style="stroke:#181818;stroke-width:1"/></g><g id="link_nest-dynamic-module_nest-opentracing"><path id="nest-dynamic-module-backto-nest-opentracing" fill="none" d="M280.18,478.88 C304.96,495.75 340.14,519.72 363.73,535.79" style="stroke:#181818;stroke-width:1;stroke-dasharray:7,7"/><polygon fill="#181818" points="275.99 476.02 281.174 484.394 280.121 478.836 285.68 477.784 275.99 476.02" style="stroke:#181818;stroke-width:1"/></g><g id="link_node-base-template_nest-swagger"><path id="node-base-template-backto-nest-swagger" fill="none" d="M574.87,204.15 C558.19,228.02 543.43,260.1 561,284 C604,342.51 691.31,357.78 749.49,361.12" style="stroke:#181818;stroke-width:1"/><polygon fill="none" points="569.46 199.7 587.2 188.11 580.56 208.23 569.46 199.7" style="stroke:#181818;stroke-width:1"/></g><g id="link_node-typescript-template_node-dto-factory"><path id="node-typescript-template-backto-node-dto-factory" fill="none" d="M551.36,386.07 C592.24,399.13 641.6,417.41 683,440 C706.1,452.6 708.98,460.17 730,476 C757.64,496.81 789.66,520.45 810.79,535.98" style="stroke:#181818;stroke-width:1"/><polygon fill="none" points="549.08 392.69 532.05 380.08 553.23 379.32 549.08 392.69" style="stroke:#181818;stroke-width:1"/></g><g id="link_node-typescript-template_node-pino-logger-factory"><path id="node-typescript-template-backto-node-pino-logger-factory" fill="none" d="M556.18,384.91 C622.95,401.69 713.74,424.51 775.14,439.95" style="stroke:#181818;stroke-width:1"/><polygon fill="none" points="554.42 391.69 536.73 380.02 557.83 378.11 554.42 391.69" style="stroke:#181818;stroke-width:1"/></g><g id="link_node-typescript-template_node-sonar-coverage-reporter"><path id="node-typescript-template-backto-node-sonar-coverage-reporter" fill="none" d="M488.93,397.69 C497.19,412.07 506.4,428.1 513.16,439.87" style="stroke:#181818;stroke-width:1"/><polygon fill="none" points="482.8 401.07 478.9 380.24 494.94 394.1 482.8 401.07" style="stroke:#181818;stroke-width:1"/></g><g id="link_node-base-template_tsconfig"><path id="node-base-template-backto-tsconfig" fill="none" d="M554.41,197.71 C525.05,213.85 488.51,233.94 463.02,247.95" style="stroke:#181818;stroke-width:1"/><polygon fill="none" points="551.13 191.52 572.03 188.02 557.88 203.79 551.13 191.52" style="stroke:#181818;stroke-width:1"/></g><g id="link_eslint-config_grpc-timeouts"><path id="eslint-config-backto-grpc-timeouts" fill="none" d="M850.55,72.5 C895.41,81.78 959.39,93.99 1016,101 C1043.4,104.39 1114.22,99.11 1140,109 C1163.86,118.15 1186.18,137.59 1200.37,151.87" style="stroke:#181818;stroke-width:1;stroke-dasharray:7,7"/><polygon fill="#181818" points="845.45 71.44 853.449 77.186 850.346 72.456 855.075 69.353 845.45 71.44" style="stroke:#181818;stroke-width:1"/></g><g id="link_node-base-template_node-renovate-config"><path id="node-base-template-backto-node-renovate-config" fill="none" d="M624.84,205.21 C634.09,219.71 644.47,235.97 652.06,247.87" style="stroke:#181818;stroke-width:1"/><polygon fill="none" points="618.87 208.87 614 188.24 630.67 201.33 618.87 208.87" style="stroke:#181818;stroke-width:1"/></g><g id="link_node-base-template_node-reusable-workflows"><path id="node-base-template-backto-node-reusable-workflows" fill="none" d="M672.16,194.55 C720.91,211.16 785.07,233.01 828.92,247.95" style="stroke:#181818;stroke-width:1"/><polygon fill="none" points="669.66 201.1 652.98 188.02 674.17 187.84 669.66 201.1" style="stroke:#181818;stroke-width:1"/></g></g></svg>